PathFileType	4	(X/Y/Z)	C:/Users/opensim2020/Desktop/walking_exp_matlab/subject06_walking12_straigt_01.trc	
DataRate	CameraRate	NumFrames	NumMarkers	Units	OrigDataRate	OrigDataStartFrame	OrigNumFrames	
100.00	100.00	5	48	mm	100.00	844	196	
Frame#	Time	LFHD			RFHD			LBHD			RBHD			C7			T10			CLAV			STRN			RBAK			LSHO			LUPA			LELB			LFRM			LWRA			LWRB			LFIN			RSHO			RUPA			RELB			RFRM			RWRA			RWRB			RFIN			LASI			RASI			LPSI			RPSI			LTHI			LKNE			LTIB			LANK			LHEE			LTOE			RTHI			RKNE			RTIB			RANK			RHEE			RTOE			*39			*40			*41			*42			*43			*44			*45			*46			*47			
		X1	Y1	Z1	X2	Y2	Z2	X3	Y3	Z3	X4	Y4	Z4	X5	Y5	Z5	X6	Y6	Z6	X7	Y7	Z7	X8	Y8	Z8	X9	Y9	Z9	X10	Y10	Z10	X11	Y11	Z11	X12	Y12	Z12	X13	Y13	Z13	X14	Y14	Z14	X15	Y15	Z15	X16	Y16	Z16	X17	Y17	Z17	X18	Y18	Z18	X19	Y19	Z19	X20	Y20	Z20	X21	Y21	Z21	X22	Y22	Z22	X23	Y23	Z23	X24	Y24	Z24	X25	Y25	Z25	X26	Y26	Z26	X27	Y27	Z27	X28	Y28	Z28	X29	Y29	Z29	X30	Y30	Z30	X31	Y31	Z31	X32	Y32	Z32	X33	Y33	Z33	X34	Y34	Z34	X35	Y35	Z35	X36	Y36	Z36	X37	Y37	Z37	X38	Y38	Z38	X39	Y39	Z39	X40	Y40	Z40	X41	Y41	Z41	X42	Y42	Z42	X43	Y43	Z43	X44	Y44	Z44	X45	Y45	Z45	X46	Y46	Z46	X47	Y47	Z47	X48	Y48	Z48	

50	0.490	-1052.82813	-394.74658	1665.19946	-922.73041	-406.34528	1646.21301	-1067.75159	-530.29932	1621.62305	-939.54779	-540.39014	1607.67004	-1019.13092	-547.43500	1458.37402	-1015.92841	-595.80969	1130.77600	-1016.96155	-440.66595	1375.31421	-1029.37097	-407.31046	1199.33325	-946.28107	-629.31720	1288.01453	-1178.73987	-489.00650	1415.98633	-1257.00964	-491.22214	1216.25562	-1273.03796	-493.26315	1104.28711	-1296.30054	-452.39694	959.20465	-1250.58093	-382.02441	852.32489	-1293.50012	-437.40579	840.46161	-1292.82434	-384.26187	767.37250	-857.15576	-491.11261	1406.12952	-775.67645	-537.26776	1207.60693	-763.66095	-532.10553	1085.94446	-743.64618	-528.99854	966.01776	-765.96118	-484.56631	819.61804	-730.86182	-541.15338	828.25916	-723.64374	-513.38983	748.61438	-1129.27197	-429.73489	959.75482	-909.19995	-417.07932	972.43555	-1094.79700	-584.75275	992.19794	-927.72626	-569.40802	1003.45618	-1181.62549	-491.62833	640.92780	-1165.65088	-478.83545	478.44464	-1150.15894	-671.60986	325.34979	-1110.52893	-800.93268	214.48500	-1059.63379	-830.07202	233.58110	-1120.83582	-750.06787	76.33291	-846.05383	-464.92886	642.24316	-871.30231	-453.54926	517.62384	-882.51672	-484.10345	251.50670	-934.12360	-467.76416	64.20583	-982.40802	-499.84296	39.51495	-939.43231	-305.16357	36.58783	-999.44275	-496.28702	1707.47424																								 
51	0.500	-1052.74255	-385.59235	1666.01074	-922.52332	-396.67905	1647.22839	-1067.00818	-521.17175	1622.25513	-938.80212	-530.68652	1608.49646	-1018.21277	-537.89697	1459.08325	-1014.98413	-586.09570	1131.53137	-1016.16516	-431.12225	1376.09998	-1028.39819	-397.76105	1200.08582	-944.93268	-619.63556	1288.67407	-1178.08630	-479.97006	1416.25024	-1255.82056	-483.90930	1216.43250	-1271.65271	-487.50977	1104.52881	-1295.21741	-449.88913	958.57654	-1249.64941	-382.31787	849.75177	-1292.92993	-438.16150	839.65424	-1291.98462	-386.81323	764.99390	-856.30365	-481.43082	1407.04187	-774.61029	-526.29633	1208.31604	-762.45343	-519.80566	1086.66821	-742.34167	-515.31110	966.81067	-764.40942	-468.58444	820.89581	-729.74835	-525.55896	828.87860	-722.33276	-496.71091	749.73206	-1127.85315	-420.28250	960.54852	-907.99115	-407.99173	972.88501	-1094.38391	-574.96948	993.03137	-927.09857	-560.52771	1004.26666	-1180.91943	-477.22641	642.15186	-1164.58069	-461.44861	479.91391	-1149.15308	-652.47742	325.46332	-1109.39575	-781.07733	213.56007	-1058.67358	-811.30768	232.02071	-1119.31897	-726.51508	77.12847	-846.00891	-460.06042	642.42047	-870.76349	-450.78619	517.51465	-882.23822	-483.20367	251.77692	-934.06805	-467.90790	64.21095	-982.35913	-499.94031	39.43522	-939.29443	-305.46432	36.68706	-998.93420	-487.01312	1708.22888																								 
52	0.510	-1052.51392	-376.43585	1666.71362	-922.28668	-387.05579	1648.06506	-1066.33411	-512.06647	1622.79443	-937.98920	-521.14246	1609.21790	-1017.38031	-528.51666	1459.74341	-1014.10901	-576.41333	1132.01294	-1015.46887	-421.67850	1376.76135	-1027.42065	-388.31491	1200.62866	-943.63556	-610.04425	1289.27148	-1177.32813	-470.71661	1416.99121	-1254.83289	-476.81476	1216.65930	-1270.54797	-481.75748	1104.90601	-1294.11401	-447.52319	958.15216	-1248.71265	-382.72482	847.50543	-1292.16187	-438.67499	838.93774	-1291.29688	-389.25122	762.91327	-855.50037	-471.72086	1407.87097	-773.60303	-515.35211	1208.89868	-761.21185	-507.70001	1087.36304	-741.14130	-501.67380	967.57043	-763.37445	-453.32352	822.41772	-728.61823	-510.12894	829.50104	-720.96704	-480.27448	750.86267	-1126.83130	-409.82312	961.50159	-906.82025	-399.27756	973.21771	-1094.09998	-565.20984	993.84406	-926.80719	-551.42206	1004.86475	-1180.05249	-462.61453	643.16882	-1163.42053	-444.11307	481.32983	-1148.27234	-633.25470	324.83615	-1108.30078	-760.64508	211.45631	-1057.72461	-791.89038	229.17424	-1117.89758	-701.57056	77.56316	-845.74963	-454.66962	642.58722	-870.29199	-447.67767	517.35962	-882.13092	-482.13168	252.03984	-934.14215	-467.89664	64.27424	-982.21259	-500.40491	39.65473	-939.16620	-305.74191	36.71893	-998.50500	-477.72144	1708.87305																								 
53	0.520	-1052.54138	-367.38708	1667.28650	-922.19592	-377.42285	1648.75745	-1065.61743	-503.00302	1623.16003	-937.35010	-511.45840	1609.76721	-1016.59363	-519.04791	1460.17419	-1013.26807	-566.83154	1132.53735	-1014.77570	-412.18939	1377.23938	-1026.46777	-378.74908	1201.11304	-942.42657	-600.46014	1289.78247	-1176.68457	-461.69821	1416.71082	-1254.00574	-469.69586	1217.00085	-1269.17859	-476.28088	1105.18311	-1292.98633	-445.10516	957.79865	-1247.70923	-383.07077	845.45892	-1291.36902	-438.99536	838.43732	-1290.26782	-391.62387	761.13483	-854.81122	-462.09845	1408.61743	-772.31525	-504.09570	1209.52063	-760.02209	-495.62836	1088.00940	-739.95068	-488.10876	968.27069	-762.15430	-437.68500	824.09265	-727.54932	-494.75058	830.12677	-719.80963	-463.73990	751.95996	-1125.55212	-399.90298	962.26172	-905.55841	-390.45215	973.40918	-1093.78052	-555.43298	994.51575	-926.38220	-542.62317	1005.50562	-1179.34473	-448.56342	644.41772	-1162.12585	-426.89325	482.71567	-1146.95313	-612.69403	323.23526	-1107.37195	-739.36249	208.37878	-1056.96167	-771.82800	225.21289	-1116.61279	-675.97302	77.07595	-845.64166	-449.23184	642.59161	-870.29584	-444.56540	517.13788	-882.18005	-480.64493	252.21667	-934.36255	-467.75452	64.37034	-982.50171	-500.26920	39.57107	-939.05420	-306.15640	36.81407	-998.11743	-468.46661	1709.40942																								 
54	0.530	-1052.51624	-358.36267	1667.69922	-922.16595	-367.83267	1649.37085	-1065.05322	-494.07541	1623.42859	-936.65961	-501.82959	1610.15527	-1015.83392	-509.64783	1460.41345	-1012.48523	-557.39001	1133.05713	-1014.16016	-402.74188	1377.65869	-1025.47974	-369.14236	1201.53430	-941.31567	-590.89478	1290.30676	-1176.00562	-452.51004	1417.46826	-1252.97546	-462.68573	1217.15833	-1268.09558	-470.84036	1105.46790	-1291.85815	-442.60211	957.56116	-1246.70752	-383.30838	843.69666	-1290.53625	-439.23825	838.22601	-1289.39124	-393.84055	759.57965	-854.14545	-452.49805	1409.21704	-771.30768	-493.17654	1210.02490	-758.88629	-483.72955	1088.60706	-738.81763	-474.68613	968.96869	-761.26575	-422.27823	825.48157	-726.57599	-479.32742	830.77130	-718.88593	-447.15485	753.11530	-1124.23718	-390.14539	962.73798	-904.35675	-381.94614	973.46063	-1093.54211	-545.74493	995.15039	-926.10455	-533.68683	1005.92786	-1178.84302	-434.46124	645.17279	-1160.84741	-409.74872	484.10754	-1146.27942	-593.43323	321.56802	-1106.51965	-717.43451	204.27547	-1056.46863	-750.94617	220.01671	-1115.25439	-648.85352	76.35503	-845.66345	-443.66064	642.48694	-870.00366	-440.53009	516.96606	-882.31396	-478.98154	252.36526	-934.72742	-467.47137	64.50498	-982.74609	-500.31989	39.73335	-939.07947	-306.41788	36.72189	-997.71527	-459.26886	1709.79248																								 
